<svg width="56" height="70" viewBox="0 0 56 70" fill="none" xmlns="http://www.w3.org/2000/svg">
<path d="M28 0C20.7092 0.00860118 13.7195 2.90868 8.56409 8.06406C3.4087 13.2195 0.50863 20.2092 0.500029 27.5C0.491297 33.4581 2.43748 39.2545 6.04003 44C6.04003 44 6.79003 44.9875 6.91253 45.13L28 70L49.0975 45.1175C49.2075 44.985 49.96 44 49.96 44L49.9625 43.9925C53.5633 39.249 55.5086 33.4553 55.5 27.5C55.4914 20.2092 52.5913 13.2195 47.436 8.06406C42.2806 2.90868 35.2908 0.00860118 28 0ZM28 37.5C26.0222 37.5 24.0888 36.9135 22.4443 35.8147C20.7998 34.7159 19.5181 33.1541 18.7612 31.3268C18.0044 29.4996 17.8063 27.4889 18.1922 25.5491C18.578 23.6093 19.5304 21.8275 20.929 20.4289C22.3275 19.0304 24.1093 18.078 26.0491 17.6921C27.9889 17.3063 29.9996 17.5043 31.8269 18.2612C33.6541 19.0181 35.2159 20.2998 36.3147 21.9443C37.4135 23.5888 38 25.5222 38 27.5C37.9967 30.1511 36.9421 32.6928 35.0674 34.5674C33.1928 36.4421 30.6512 37.4967 28 37.5Z" fill="white"/>
</svg>
