<svg width="54" height="54" viewBox="0 0 54 54" fill="none" xmlns="http://www.w3.org/2000/svg">
<path d="M50.323 53.6668C21.8864 53.7068 0.303039 31.8668 0.333039 3.67683C0.333039 1.8335 1.82637 0.333496 3.66637 0.333496H12.4664C14.1164 0.333496 15.5197 1.54683 15.763 3.18016C16.3434 7.09701 17.4828 10.9103 19.1464 14.5035L19.4897 15.2435C19.7203 15.7415 19.7699 16.3043 19.63 16.8349C19.49 17.3656 19.1693 17.8307 18.723 18.1502C15.9964 20.0968 14.9564 24.0135 17.0797 27.0668C19.753 30.9113 23.0895 34.2489 26.933 36.9235C29.9897 39.0435 33.9064 38.0035 35.8497 35.2802C36.1688 34.8326 36.6343 34.5106 37.1658 34.37C37.6972 34.2294 38.261 34.279 38.7597 34.5102L39.4964 34.8502C43.0897 36.5168 46.903 37.6568 50.8197 38.2368C52.453 38.4802 53.6664 39.8835 53.6664 41.5368V50.3335C53.6664 50.7715 53.58 51.2052 53.4123 51.6099C53.2446 52.0145 52.9988 52.3821 52.6889 52.6917C52.379 53.0013 52.0111 53.2467 51.6063 53.4141C51.2015 53.5814 50.7677 53.6673 50.3297 53.6668H50.323Z" fill="white"/>
</svg>
